<svg t="1694071737795" class="icon" viewBox="0 0 1024 1024" version="1.1" xmlns="http://www.w3.org/2000/svg" p-id="1748" width="16" height="16"><path d="M714.666667 100.885333l137.6 25.024A79.274667 79.274667 0 0 1 917.333333 203.904v487.978667a79.274667 79.274667 0 0 1-38.293333 67.861333L573.44 944.234667a118.890667 118.890667 0 0 1-122.922667 0L144.96 759.744A79.274667 79.274667 0 0 1 106.666667 691.904V203.882667a79.274667 79.274667 0 0 1 65.066666-77.994667L309.333333 100.906667a1132.117333 1132.117333 0 0 1 405.333334 0z m-11.456 62.954667a1068.117333 1068.117333 0 0 0-382.421334 0l-137.6 25.045333A15.274667 15.274667 0 0 0 170.666667 203.904v487.978667c0 5.333333 2.794667 10.304 7.381333 13.077333l305.578667 184.490667a54.890667 54.890667 0 0 0 56.746666 0l305.578667-184.490667a15.274667 15.274667 0 0 0 7.381333-13.077333V203.904a15.274667 15.274667 0 0 0-12.522666-15.018667l-137.6-25.045333z" fill="#111111" p-id="1749"></path><path d="M512 277.333333a42.666667 42.666667 0 0 1 42.666667 42.666667v225.856a42.666667 42.666667 0 1 1-85.333334 0V320a42.666667 42.666667 0 0 1 42.666667-42.666667zM512 640a42.666667 42.666667 0 0 1 42.666667 42.666667v21.333333a42.666667 42.666667 0 1 1-85.333334 0v-21.333333a42.666667 42.666667 0 0 1 42.666667-42.666667z" fill="#111111" p-id="1750"></path></svg>